<svg xmlns="http://www.w3.org/2000/svg" width="720" height="360" viewBox="0 0 720 360" font-family="system-ui, sans-serif">
<rect width="720" height="360" fill="white"/>
<text x="360" y="26" text-anchor="middle" font-size="18" font-weight="600" fill="#0f172a">Database growth</text>
<line x1="70.0" y1="296.0" x2="696.0" y2="296.0" stroke="#e2e8f0" stroke-width="1"/>
<text x="62.0" y="300.0" text-anchor="end" font-size="11" fill="#0f172a">0</text>
<line x1="70.0" y1="234.0" x2="696.0" y2="234.0" stroke="#e2e8f0" stroke-width="1"/>
<text x="62.0" y="238.0" text-anchor="end" font-size="11" fill="#0f172a">12,545</text>
<line x1="70.0" y1="172.0" x2="696.0" y2="172.0" stroke="#e2e8f0" stroke-width="1"/>
<text x="62.0" y="176.0" text-anchor="end" font-size="11" fill="#0f172a">25,090</text>
<line x1="70.0" y1="110.0" x2="696.0" y2="110.0" stroke="#e2e8f0" stroke-width="1"/>
<text x="62.0" y="114.0" text-anchor="end" font-size="11" fill="#0f172a">37,635</text>
<line x1="70.0" y1="48.0" x2="696.0" y2="48.0" stroke="#e2e8f0" stroke-width="1"/>
<text x="62.0" y="52.0" text-anchor="end" font-size="11" fill="#0f172a">50,180</text>
<path d="M73.8,294.5 L101.7,285.6 L256.5,226.6 L696.0,48.0" fill="none" stroke="#2563eb" stroke-width="2.5"/>
<circle cx="73.8" cy="294.5" r="3.5" fill="#1e3a8a"/>
<text x="73.8" y="314.0" text-anchor="middle" font-size="11" fill="#0f172a">84.00</text>
<circle cx="101.7" cy="285.6" r="3.5" fill="#1e3a8a"/>
<text x="101.7" y="314.0" text-anchor="middle" font-size="11" fill="#0f172a">710.00</text>
<circle cx="256.5" cy="226.6" r="3.5" fill="#1e3a8a"/>
<text x="256.5" y="314.0" text-anchor="middle" font-size="11" fill="#0f172a">4,172</text>
<circle cx="696.0" cy="48.0" r="3.5" fill="#1e3a8a"/>
<text x="696.0" y="314.0" text-anchor="middle" font-size="11" fill="#0f172a">14,001</text>
<text x="383" y="348" text-anchor="middle" font-size="12" fill="#0f172a">memories stored</text>
<text x="16" y="172" text-anchor="middle" font-size="12" fill="#0f172a" transform="rotate(-90 16 172)">database size (KiB)</text>
</svg>