<svg xmlns="http://www.w3.org/2000/svg" width="720" height="360" viewBox="0 0 720 360" font-family="system-ui, sans-serif">
<rect width="720" height="360" fill="white"/>
<text x="360" y="26" text-anchor="middle" font-size="18" font-weight="600" fill="#0f172a">Retrieval latency</text>
<line x1="70.0" y1="296.0" x2="696.0" y2="296.0" stroke="#e2e8f0" stroke-width="1"/>
<text x="62.0" y="300.0" text-anchor="end" font-size="11" fill="#0f172a">0</text>
<line x1="70.0" y1="234.0" x2="696.0" y2="234.0" stroke="#e2e8f0" stroke-width="1"/>
<text x="62.0" y="238.0" text-anchor="end" font-size="11" fill="#0f172a">164.35</text>
<line x1="70.0" y1="172.0" x2="696.0" y2="172.0" stroke="#e2e8f0" stroke-width="1"/>
<text x="62.0" y="176.0" text-anchor="end" font-size="11" fill="#0f172a">328.70</text>
<line x1="70.0" y1="110.0" x2="696.0" y2="110.0" stroke="#e2e8f0" stroke-width="1"/>
<text x="62.0" y="114.0" text-anchor="end" font-size="11" fill="#0f172a">493.06</text>
<line x1="70.0" y1="48.0" x2="696.0" y2="48.0" stroke="#e2e8f0" stroke-width="1"/>
<text x="62.0" y="52.0" text-anchor="end" font-size="11" fill="#0f172a">657.41</text>
<rect x="101.3" y="294.1" width="93.9" height="1.9" rx="3" fill="#2563eb"/>
<text x="148.2" y="288.1" text-anchor="middle" font-size="11" fill="#0f172a">4.92</text>
<text x="148.2" y="314.0" text-anchor="middle" font-size="12" fill="#0f172a">small</text>
<rect x="257.8" y="284.0" width="93.9" height="12.0" rx="3" fill="#2563eb"/>
<text x="304.8" y="278.0" text-anchor="middle" font-size="11" fill="#0f172a">31.73</text>
<text x="304.8" y="314.0" text-anchor="middle" font-size="12" fill="#0f172a">medium</text>
<rect x="414.3" y="227.4" width="93.9" height="68.6" rx="3" fill="#2563eb"/>
<text x="461.2" y="221.4" text-anchor="middle" font-size="11" fill="#0f172a">181.93</text>
<text x="461.2" y="314.0" text-anchor="middle" font-size="12" fill="#0f172a">large</text>
<rect x="570.8" y="48.0" width="93.9" height="248.0" rx="3" fill="#2563eb"/>
<text x="617.8" y="42.0" text-anchor="middle" font-size="11" fill="#0f172a">657.41</text>
<text x="617.8" y="314.0" text-anchor="middle" font-size="12" fill="#0f172a">enterprise</text>
<text x="16" y="172" text-anchor="middle" font-size="12" fill="#0f172a" transform="rotate(-90 16 172)">mean ms / query</text>
</svg>